<svg version="1.1" id="Layer_1" xmlns="http://www.w3.org/2000/svg" x="0" y="0" viewBox="0 0 1257 754" xml:space="preserve"><style>.st0{fill:#fff}</style><g id="layer101"><path class="st0" d="M621.2 746.1v-7.9h-10.9c-15.1 0-44.3-1.8-69.7-4.2-11.8-1.2-24.5-2.3-28.3-2.7-19.3-1.7-63.3-9.9-93.4-17.6-7.6-2-17.4-4.3-21.7-5.3-9.8-2.3-31.1-9.2-50-16.1-8-3-17.8-6.7-21.9-8.2-4-1.5-14.9-6.3-24.1-10.7s-19.1-9.1-22-10.5c-11.4-5.2-50.4-29.8-57.6-36.2-1.7-1.6-5.4-4.4-8.4-6.4-6.4-4.2-33.4-30.9-41.4-40.7-18.9-23.5-33.1-54-37-79.3l-.6-4H249l.7 5.7c1.7 14.5 11.7 44.3 19.8 58.6 8.4 14.9 20.3 31.5 29.4 41.2 4.2 4.5 9.2 9.9 11.2 12.3 1.9 2.2 5.9 5.9 8.8 8 2.8 2.2 7 5.6 9.1 7.5 14.2 13.3 41.7 30.9 71.8 46 13.6 6.8 25.6 12.5 26.4 12.5s7 2.1 13.6 4.7c14 5.6 37.1 13.1 47.6 15.6 30.4 7.1 56.9 12 80.1 14.7 16.2 1.9 39.8 3.8 48 3.8h5.4v-9.4h17.8v9.7l17.4-.7c38.6-1.6 74.9-6.9 122.2-18 12.9-3 40.1-12.4 66.2-22.6 5.4-2.2 29.1-13.9 42.3-20.9 7.9-4.3 11.5-6.6 25.6-16.2 4.4-3 8.3-5.6 8.6-5.6s7.5-5.9 16.1-13.1c33-27.6 55.2-57.5 69.1-92.5 4.6-11.5 8.5-26.4 8.5-32.4 0-2.2.3-5 .6-6.3l.6-2.4h114v2.9c0 1.6-1.6 9.3-3.6 17.2-8.5 34.2-29.7 65.3-67.3 98.3-10.2 9-36.3 28.2-38.3 28.2-.5 0-3.1 1.5-5.9 3.4-6.6 4.5-31.3 18.6-32.6 18.6-.6 0-5.7 2.3-11.3 5.1-12.7 6.4-29.7 14-35.3 15.8-2.3.7-8.9 3.1-14.7 5.3-15.1 5.8-43.8 15.1-52.9 17.2-4.3.9-13.9 3.4-21.5 5.2-34.7 8.8-77.8 16.7-101.3 18.3-7.6.6-15.1 1.3-16.5 1.6-6.5 1.3-43.6 3.8-65.7 4.4l-24.4.6v15.3h-17.8v-7.8h.4z"/><path class="st0" d="M522.7 687c-15.8-1.4-30.1-8.3-42.1-20.6-16.1-16.5-21.6-31.5-18.6-51.6 2.5-17.2 10.5-29.5 25.4-39.1 7.1-4.6 26.1-14.2 37.8-19.3 18.2-7.7 27.6-15.4 41.8-33.8 9-11.7 13.2-16 20.3-21 10.5-7.3 29-11.2 46.9-9.8 26.8 2 37.3 7.7 55.3 30.4 13.7 17.2 23.5 24.7 45.1 34.9 14.8 7 37.6 20.4 45.1 26.5 8 6.4 11.3 10.7 15.5 19.6 2.9 6.3 3.2 8.1 3.2 16.4 0 17-8 34.5-22.3 48.8-13.5 13.6-27.6 18.7-51 18.7-16.8 0-26-1.5-58.9-9.4-33.7-8.1-37.7-8.7-48.1-7.2-8.8 1.3-26.3 5.6-42.2 10.4-20.6 6.2-33.7 7.6-53.2 6.1zm-66-111.3c-7.9-2.9-16.7-12.6-23.2-25.3-5.3-10.6-11.5-40.5-11.6-57.1-.1-13.2 1.7-19.1 7.6-24.4 6.6-6 11.8-7.3 25.4-6.7 21.4.9 31.9 6.5 40.1 21 8.8 15.8 11.8 43.6 6.8 62.5-3.4 12.6-14.5 25.8-24.2 28.6-8 2.4-16.7 2.9-20.9 1.4zm322.1-.7c-9.1-4.2-18.7-18.1-22.2-32.3-2.3-9.4-2.3-30.5 0-41.1 3.6-16.2 13.2-31.1 22.2-34.2 14.9-5.3 18-5.9 28.9-5.4 9 .3 11.8.8 16.1 2.9 9.9 4.9 13.6 14.5 13.5 34.6-.1 21.4-5.6 43.4-13.6 55.1-6.7 9.8-17.1 19.9-21.9 21.3-6.6 1.7-18.2 1.3-23-.9zm-72.6-53c-12.3-3.5-20.1-11.8-25.1-27-7.6-22.8-7-48.5 1.9-77 5.1-16.5 9.2-21 24.3-26.4 23.1-8.3 51.8.2 61.4 18.2 2.7 5.2 2.8 5.8 2.8 23.1 0 16.7-.2 18.3-2.9 26-7.7 22-21.5 44.7-32.7 54.1-11.1 9.4-19.4 11.9-29.7 9zm-170.1-1c-5-1.9-19.8-13-23.9-18.1-7.7-9.6-19-30.6-22.9-42.9-8-24.6-3.7-50.9 10.2-61.9 8.8-6.9 22.5-10.3 38.3-9.3 12 .8 24.8 6.9 31.1 14.9 4.1 5.1 10.3 22.1 13.1 35.8 2.3 11.4 2.6 15.2 2.2 24.5-1.3 24.6-13.2 50.2-26.2 56.4-5.3 2.6-15.8 2.8-21.9.6zM51.2 487.3c-.4-.3-.7-3.9-.7-7.9v-7.1h312v15.8H207.2c-85.5-.1-155.7-.4-156-.8zm858.7 0c-.4-.3-.7-3.9-.7-7.9v-7.1h312v15.8h-155.3c-85.4-.1-155.7-.4-156-.8zm-294.2-5.2c-8.3-4.3-16.9-14.2-20.2-23.6-5.2-14.5-6.7-19.2-8.4-28.2-2.4-12.9-2.5-35.2-.1-46.1 2-9.3 8.2-22.1 12.4-25.7 8.4-7.1 34.9-8.8 53.7-3.6 5.3 1.5 9.8 6.6 14.5 16 4.8 9.8 7 20.8 7 35.5 0 19-3.4 33.8-11.4 50.9-5.8 12.3-14.8 21.7-24.6 25.8-6 2.7-17 2.2-22.9-1z"/><path class="st0" d="M135 463.4c-.3-.3.1-4.2.9-8.7 4.6-24.4 18.3-52.3 37.1-75.5 8.2-10.1 30.4-31.6 41.2-40.1 14.7-11.4 35.1-25.3 42.5-29 3.8-1.9 7.5-4.1 8.4-4.8 2.4-2 24.8-13.6 33-17.1 4.1-1.8 13.7-6 21.5-9.3 16.3-7.2 25.7-10.7 48.2-18 23.7-7.6 48.5-14.7 58.1-16.3 4.6-.8 16.3-3.1 26.1-5.2 49.5-10.5 109.3-17.3 151.2-17.3h18v-10.4H639v10.4h22.9c44 0 95 5.7 147.8 16.4 13 2.6 26.9 5.3 30.9 6.1 14.5 2.6 73.1 20.7 92.7 28.6 34.5 13.8 72.6 33.5 94.3 48.6 5.2 3.7 12.5 8.6 16 11.1 6.8 4.6 24 19.4 32.1 27.4 7 7 21.3 23.4 24.2 28 10.6 16 13.2 20.4 18.1 30.9 5 10.7 11 30.8 12.4 41.7l.3 2.6-57.2.3-57.2.2-.7-3.2c-.3-1.8-.6-5-.6-7.2 0-13.1-16.3-52.7-29.5-71.2-14.3-20.3-33.1-40.4-50-53.6-15.8-12.5-24.1-18.6-24.7-18.6-.4 0-2.7-1.4-5.2-3.1-6.9-4.8-30.8-18.9-32-18.9-.5 0-5.1-2.1-10.2-4.6-23-11.7-54.1-23.1-88.2-32.5-32.5-8.8-95.2-17.3-128.5-17.4H639v15.8h-17.8v-7.9c0-5.6-.4-7.9-1.3-7.9-.7 0-9.3.5-19.2 1-50.8 3-96.9 11.4-139.7 25.3-26.3 8.5-27.9 9.1-52.3 20.4-24 11.1-24.5 11.4-41.2 22-6.7 4.2-12.5 7.6-12.8 7.6-.6 0-18.9 13.7-25.8 19.5-8.6 7-16.9 14.9-24.9 23.5-12.8 13.8-16.8 18.7-24.9 31.4-3.9 6.1-8.3 12.7-9.6 14.8-5.4 8.2-16.4 40-19 54.6l-1.8 10.3H192c-30.9-.2-56.6-.4-57-.7z"/><path class="st0" d="M430.1 455.8c-5.4-8.3-5.4-21.7.1-36.3 4.1-11.1 15.7-33 20.9-39.7 7.6-9.7 8.2-9 9.7 12.8 1.5 20.2 2.2 27.5 4.3 41.1 1.6 10.4.4 16.5-3.8 20.4-3.5 3.1-13.2 5.8-21.7 5.8-6.8-.2-6.9-.2-9.5-4.1zm383.8 2.8c-8.7-1.6-16.8-4.4-18.5-6.4-2.8-3.1-2.2-22.7 1.3-39.5 1.9-9.6 2.6-16.1 2.6-25.3v-12.5h2.5c6.9 0 20.1 21.7 26.8 44 5.2 17.4 4.6 32.9-1.5 39.1-2 1.8-5.6 2-13.2.6zM.2 392.7V380l4.7-2.1 4.7-2.1V152.9l-2.9 1.3c-1.6.7-3.2 1.6-3.9 2.1-2.3 2-2.6.1-2.4-13l.3-13.9 11.3-7.5C28 111.2 51.6 98 64.3 92.5c6-2.5 13.1-5.7 15.9-6.9 7.1-3.1 19.5-3.2 24.7-.2 5.6 3.4 11.2 12.3 13.6 21.9 4.1 16 2.4 49.8-3.2 66.9-3.2 9.5-9.8 22.7-14.9 29.5l-4.7 6.3 7.5-.3c7.2-.3 7.9-.2 12.3 3.1 10.7 8.2 13 19.4 12.1 59-.5 28.6-1.6 35.1-7.9 48.8-6.3 14-19.1 29.5-28.1 34.2-1.8 1-5.9 3.5-8.9 5.6-9.6 6.3-24.4 14.6-30 16.5-2.8 1-11.3 5.3-18.7 9.5s-16.5 9.3-20.3 11.2c-3.8 2-8.4 4.6-10.2 5.8L0 405.5v-12.8h.2zm60-46.4c5.8-3.6 14-13.6 18.2-22.2l3.5-7.2v-30.4c0-32.8-.4-36.3-5.4-41.7-2.6-2.8-3.5-3.1-7.4-2.7-2.4.3-6.7 1.5-9.4 2.7l-4.9 2.2v50.8c0 28 .3 50.9.8 50.9.3 0 2.4-1.1 4.6-2.4zm8.7-138.5c7.6-10.7 7.7-11.2 7.7-47.5V128l-2.7-3.2c-1.5-1.8-3.4-3.2-4.2-3.2-.7 0-4.5 1.7-8.3 3.8l-6.8 3.8v92.1l4.8-3.5c2.8-2.1 7-6.6 9.5-10zm1178.5 193.6c-3.8-1.4-8.7-3.4-11-4.3-15.7-6.3-27.5-20.6-33-39.5-1.9-6.7-2.1-10.5-2.1-42.4 0-39.4-.5-43.7-6.8-54.2-3.8-6.4-7.9-10.6-13.2-13.4l-3-1.6v94.2l5.8 3.2 5.8 3.2v12c0 8.9-.3 11.9-1.3 11.9-.7-.1-5.3-2.4-10.3-5.2-4.9-2.8-13.6-7.5-19.4-10.5-5.8-2.8-15.9-8.3-22.5-11.9l-12-6.7-.3-12.1c-.2-7.4.1-12.1.7-12.1.5 0 2.7.9 4.7 2.2l3.8 2.2V106.3l-5-2.6-4.9-2.6-.3-11.2c-.1-6.6.1-11.3.7-11.3.5 0 4 1.4 7.6 3s8.7 3.9 11.3 5.1c2.6 1.2 6.6 2.8 8.9 3.7 11.7 4.5 51.8 25 58 29.7 6.5 4.9 18 16.3 20.9 20.7 9.2 13.4 13.7 41.5 11.7 73.3-.7 13.1-1.2 15.5-4.3 23-4.1 9.9-8.8 14.9-14.7 15.8l-4.1.6 6.5 7.2c3.6 4 7.2 8.6 8.2 10.3.8 1.7 2.4 4.3 3.4 5.8.9 1.5 2.8 5.1 4 8.2 5.2 13 5.3 14.5 6.1 51.6.7 38.1.6 37.3 6.6 44.5 2.7 3.4 2.9 4.2 2.9 13.3 0 7.1-.3 9.7-1.3 9.6-.7.1-4.3-1.1-8.1-2.6zM1194.1 219l3-3v-33.4c0-30.8-.2-33.6-2.1-37.8-4.2-9.1-6.7-11.5-14.1-13.4l-2.6-.6v87.1l5.6 2.1c7 2.5 6.6 2.5 10.2-1zM717.4 381.2c-6.1-1-8.9-2.5-10.6-5.6-1.7-3-2-76.1-.2-76.1s8 4.9 12.8 10.3c9.4 10.4 26 47.4 27.1 60.4.8 9.5-.5 10.7-13.8 11.3-5.8.3-12.7.2-15.3-.3zm-193.1-.7c-11.9-.5-12-.6-12-6.7 0-12.5 5.3-29.4 13.2-41.7 8.9-13.9 24.3-32.5 26.9-32.6 1.7 0 1.8.7 1.2 7.6-.7 8.8-1.2 41.9-.6 56 .3 7.7 0 10.3-1.4 12.4-2.4 3.7-7.7 5.7-14.3 5.4-3.2 0-8.9-.2-13-.4zm88.1-39c-2.5-2.8-4.8-11-4.8-17.4 0-8.1 6.9-33 9.5-34.7.5-.3.9-1.4.9-2.4s2.1-6.2 4.7-11.4c3.5-7.3 5.1-9.6 6.7-9.6 2.8 0 5.9 4.7 8.6 13.2 1.3 4 4.8 14.2 8 22.8 8.8 24.1 8.6 35-.7 39.6-2.9 1.5-6.4 1.9-17.4 1.9-12.2 0-14-.2-15.5-2zm-468.8-85.9v-9.3l4.2-1.7 4.2-1.7v-71.2c0-39.2-.2-71.2-.5-71.2-.2 0-2.1.8-4.2 1.8-2 .9-3.9 1.5-4.2 1.2s-.3-4.4.1-9c.5-6.4 1.2-8.7 2.4-9.1 12.8-5.1 48.6-18.2 51.2-18.6l3.4-.7v17.4l-3.7 1.8-3.7 1.8v71.2c0 39.2.2 71.2.4 71.2s2.7-1 5.6-2.2c2.7-1.3 7.6-3.1 10.8-4.1l5.8-1.9.3-19.9.2-20 5.6-1.5c2.9-.8 8.5-2.3 12.3-3.1 3.8-.9 7.9-2 9.2-2.4l2.3-.6v57.7l-5.4 2c-3 1-11.6 4-19.2 6.5-7.4 2.5-27 9.1-43.6 14.9-16.4 5.7-30.7 10.3-31.6 10.3-1.7-.3-1.9-1.5-1.9-9.6zm958.8 6.2c-7.5-2.9-47.3-16.9-59.7-20.8-5.8-2-15.1-5.1-20.6-7.2l-10.3-3.8v-9.2c0-5 .2-9.2.4-9.2.3 0 1.7.4 3.1 1l2.7 1V73.4l-3.7-1.3-3.7-1.4V60.4c0-9.4.2-10.4 1.9-9.6 5.1 2 36.9 13.1 56.1 19.5 11.9 4 25.6 8.7 30.1 10.6l8.3 3.2v29.1c0 16.1-.1 29.2-.3 29.2s-2.4-.7-5-1.5c-2.5-.8-8.7-2.8-13.7-4.3l-9.2-2.7V93.3l-5.4-1.6c-3-.8-7.5-2-10.1-2.5l-4.4-1 .2 28.7.3 28.7 13.6 4.6c7.5 2.6 15.4 4.9 17.6 5.3l3.9.7v21.9l-3.9-.7c-2.2-.4-10.3-2.7-17.8-5.1l-13.9-4.5V227l9.7 3.2c5.2 1.8 9.9 3.2 10.5 3.2.4 0 .7-7.7.7-17.1v-17.2l4.5.7c2.4.4 9 2 14.7 3.7l10.2 2.9V235c0 15.8-.3 28.7-.7 28.6-.6.2-3.2-.7-6.1-1.8zm-842.3-45.2c.3-9.2.4-9.7 2.7-10.1 3-.4 3.8-2 6.4-14.3 3.7-16.9 17.9-95.6 17.9-99.3.1-4.2 8.9-53.9 9.7-54.8.7-.8 38.6-9 39.2-8.5.4.4 11.3 53.7 23.9 116.5 3.9 19.1 7.2 35.4 7.4 36.4.4 1.3 1.7 1.8 4.2 1.8h3.6v15.6l-3.9 1c-11.2 2.9-53.6 12.7-55.1 12.7-1.6 0-1.8-1.3-1.8-9.3v-9.2l2.9-.6c1.7-.3 4-1.5 5.2-2.5l2.3-1.9-2.3-11.7c-1.3-6.5-2.8-11.8-3.5-11.8-2.4 0-23.7 3.9-24.2 4.5-.8.7-4.9 27-4.3 27.6.3.2 2.2 0 4.3-.5 2.1-.6 4-.7 4.2-.4.2.4.2 5.1-.1 10.4l-.6 9.7-3.7 1c-2.1.5-6.4 1.5-9.5 2.1-3.2.7-9.7 2.1-14.5 3.2-4.7 1-9.1 2-9.7 2s-.9-3.2-.7-9.6zm48.3-66.2c3.9-.7 7.3-1.7 7.6-2 .4-.3-1-8.8-3.1-18.7-2-9.9-4.1-20-4.4-22.3-.5-2.8-.9-3.5-1.3-2.1-.2 1.2-2.4 12.1-4.9 24.4-3.8 19.3-4.2 22.2-2.7 22.2.9-.2 4.8-.8 8.8-1.5zm636.4 63.1c-16.4-3.9-30.9-7.4-32.1-7.7-2.3-.5-2.4-1.2-2.4-9.1v-8.5l4.5.7c2.4.3 5.4.9 6.8 1.3l2.3.6V50.5l-4.2-1-4.2-1V88h-2.8c-1.7 0-7.1-1.2-12.3-2.4l-9.2-2.4.1-29.7c.1-16.3.4-30.1.6-30.5.6-.9 8.5.8 52.4 11.6 27.3 6.7 48.7 11.5 51.6 11.5.1 0 .2 13.7.2 30.5 0 28.5-.1 30.4-1.8 29.8-1-.3-5.1-1.3-9.2-2.2-4-.8-8.4-1.8-9.6-2.1-2.4-.5-2.4-.7-2.4-20.3V62l-3.2-1.2c-1.9-.6-3.8-1.2-4.2-1.2-1.2 0-1.3 81-.2 115.9l.6 24.2 6.2 1.3 6.1 1.2v9.4c0 8.2-.2 9.3-1.8 9.2-1.2.1-15.4-3.3-31.8-7.3zm-65.5-13.6c-9.7-1.3-39.6-6.3-40.5-6.9-.5-.2-.8-3.7-.8-7.7V178h4.2c2.3 0 4.2-.3 4.2-.6 0-.9-4.1-25.6-4.7-28.3-.4-1.9-1.8-2.3-11.2-3.5-6-.7-11.6-1.6-12.6-1.8-1.5-.4-1.9.1-1.9 2.4 0 1.6-1.4 8.2-3 14.7l-2.9 11.6 2.9.6c3 .5 3 .6 3 8.8v8.3l-10.7-1.4c-6-.7-14.2-1.7-18.3-2.1l-7.6-.7v-16.5h8.1l3.2-14.3c1.8-8 3.5-16.4 3.8-18.7.3-2.4 3.9-18.6 8-36.1 7.5-32.9 11.5-50.7 16.1-73.1 1.5-7.1 2.9-13.2 3.1-13.4.5-.5 36.2 4.8 37.5 5.7.5.2.8 2.3.8 4.6 0 2.4 4.4 29.8 9.8 60.9 5.4 31.2 10.5 60.7 11.1 65.7 1.9 13.6 4.2 28.6 4.8 30.6.3.9 2.1 2.3 4.1 2.9l3.7 1.3V201l-3.4-.1c-1.9 0-6.7-.5-10.8-1zm-41.4-74.7c0-4.1-6-46.7-6.6-47.4-.2-.1-3 10.6-6.4 23.9-3.4 13.2-5.9 24.4-5.4 24.7.6.6 12.8 2.9 17.2 3.4.8.1 1.2-1.5 1.2-4.6zm-427.2 69c-8.5-1.7-12.7-3.9-17.7-9.4-8.7-9.5-8.5-7.3-8.5-79.1 0-60.6.1-62.8 2.2-68.4 2.8-7.9 10.1-15.5 18-19.5 5.9-2.8 7.9-3.2 19.6-3.9 11.9-.5 13.6-.4 18.1 1.6l4.9 2.2v-8l13.2-1.3c7.2-.7 13.4-1 13.6-.8s.5 13.1.6 28.6l.3 28.2-8.4 1.2c-4.6.6-10.8 1.5-13.8 1.9l-5.4.7-.3-17-.3-16.9-3.5-3c-1.9-1.7-4.4-3-5.8-3-3.4 0-8.8 3.7-11.2 7.5-2 3.4-2.1 5.4-2.1 65.6 0 67.4-.2 65.6 5.9 70.3 6 4.7 14.2 3.8 20.1-2.3 6.3-6.5 6.9-9.5 7.5-33.2l.5-21.5 8.9-1.3c4.9-.6 9.2-.9 9.5-.5.4.4.4 11.6 0 24.8-.6 22.7-.7 24.4-3.1 29.2-7.2 14.7-29.5 26.7-50.4 27.4-5.3.2-11 .1-12.4-.1zm87.9-18.8v-7.9h3c6.9 0 6.4 6.1 6.4-73.4V22h-10.4v-8.9c0-5.4.4-8.9 1-8.9 2 0 44.4-3.1 51.1-3.8l6.5-.6v20.1h-7.4v27.8c0 15.3.2 27.8.5 27.8.2 0 1.2-2.2 1.9-4.9.8-2.8 3.1-9 5.2-13.9 5.2-12.6 14.5-34.9 15.1-36.3.4-.9-.6-1.4-3.2-1.4h-3.8V0h41.8v16.8h-2.9c-2.6 0-3.4.8-5.8 5.7-1.6 3.1-2.8 6.3-2.8 6.9s-4.5 10.9-9.9 22.9-9.8 22.7-9.8 23.7c0 1.2 4.4 11 9.8 21.9 5.3 11 14.6 29.6 20.4 41.7 8.5 17.1 11.1 21.7 12.8 21.7 1.8 0 2 .7 2 8.4v8.4h-11.7c-6.5 0-18.5.3-26.7.7l-15 .6v-9c0-8.6.1-9 2.5-9.3 2.3-.3 2.1-.9-6.5-17.1-4.8-9.2-9.6-18.8-10.8-21.5l-1.9-4.7-.1 22.3v22.2h3.1c2.6 0 3.1.5 3.7 3.5.4 1.8.5 5.8.3 8.6l-.3 5.2-23 1.8c-12.7.9-25.8 1.8-29 1.8l-6.1.1v-7.9zm238.6 6.9c-4.5-.4-8.3-.9-8.5-1.2-.5-.5-4.3-27.2-12.4-87.3-5-36.5-4.8-36.2-8.9-19.9-.9 4-6.4 23-12 42.3-5.7 19.3-11 38.2-11.9 42-.8 3.8-2.5 10.1-3.7 13.9l-2.2 7-11.2-.7c-6.2-.3-11.3-.7-11.4-.8-.4-.3-14.1-95.7-15-104.3-.5-5.4-2.3-19.8-4.1-31.8-1.8-11.9-3.2-22.2-3.2-22.7s-1.4-.9-3.1-.9h-3.1V0H650c12.9 0 24.9.3 26.7.6l3.2.7v16.5H675c-4.5 0-4.8.2-4.3 2.4.3 1.3 2.3 15.4 4.5 31.3s4.3 28.8 4.6 28.6c.4-.2 1.6-4.1 2.5-8.6 2.3-9.7 18.5-70.9 19-71.3.3-.3 36.4 2.9 36.9 3.4.6.5 10.8 60.1 11.7 69.2.7 5.7 1.4 10.5 1.6 10.7.4.4 15.3-59 15.3-60.7 0-.4-1.5-.7-3.2-.7h-3.4l.5-8.4c.3-4.6.7-8.6.9-8.7.2-.2 7.5.3 16.1 1.3L793.4 8l.3 8.8.3 8.8-3.1-.6c-3.8-.7-2.4-4.6-11.6 33.3-3.6 14.5-6.9 29-7.4 32.5-1 6.3-3.8 17.7-15.7 66.8-6 24.1-6.5 25.9-8.6 25.7-1.3-.2-6-.7-10.4-1z"/></g><path d="M621.2 746.1v-7.9h-10.9c-15.1 0-44.3-1.8-69.2-4.2-11.5-1-24.5-2.3-28.8-2.6-19.1-1.7-66.1-10.7-95.8-18.3-6.3-1.6-15-3.7-19.1-4.7-9.4-2.1-31.7-9.4-50.6-16.3-7.7-2.9-17.4-6.5-21.5-8-4-1.5-15.1-6.4-24.6-11-9.5-4.5-19.4-9.2-22-10.4-10.4-4.8-50.3-30-56-35.2-1.2-1-5.7-4.6-9.9-7.9-15.6-11.8-40.2-37.8-50.9-53.7-13-19.3-24-46.2-26.9-65.7l-.6-4h114.8l.7 5.7c2.4 21 17.7 59.3 29.8 75 1.6 2 4.6 6.3 6.7 9.6 4.7 7 27 31.3 32.8 35.6 2.3 1.7 6 4.8 8.3 7 6.8 6.4 19.3 15.4 38.7 27.9 11.1 7.1 57.4 30.9 60.1 30.9.8 0 8.1 2.5 16.2 5.7 15.9 6.2 42.5 14.7 49.3 15.8 2.3.4 11.5 2.3 20.4 4.2 33.3 7.2 79.1 13.1 102.7 13.1h6.2v-9.4h17.8v9.4h8.2c33.8 0 82.2-6.8 131.5-18.4 14.6-3.5 50-15.7 69.7-24.3 13.4-5.8 44.6-22.2 52.9-27.9 4.1-2.7 10.1-6.7 13.4-8.8 10.8-6.9 37.8-30.1 47.4-40.6 20.2-22.3 33.3-42.5 43.6-67.4 4.6-11.1 9.2-27.8 9.2-33 0-1.9.3-4.9.6-6.7l.7-3.2H1130v3c0 1.7-1.7 9.5-3.7 17.4-4 15.9-9.5 28.6-18.4 42.4-3.1 4.9-6.1 9.6-6.4 10.5-1.3 3.2-20.7 25-31.7 35.4-12.6 11.8-39.3 32.5-49.2 37.9-3.5 1.9-7.6 4.5-9.4 5.8-5.7 4.2-21.6 12.6-41.9 22.2-25.2 11.9-28.4 13.3-33.5 15-2.3.7-8.9 3.1-14.7 5.3-15 5.7-43.7 15-52.9 17.2-4.3 1-16.1 3.9-26.2 6.4-54.8 13.5-114.3 21.3-178.2 23l-24.9.7v15.3h-17.8v-7.8h.1zm-570-258.8c-.4-.3-.7-3.9-.7-7.9v-7.1h312v15.8H207.2c-85.5-.1-155.7-.4-156-.8zm858.7 0c-.4-.3-.7-3.9-.7-7.9v-7.1h312v15.8h-155.3c-85.4-.1-155.7-.4-156-.8zM135.6 458c2.3-21.4 18.2-55 37.4-78.6 7.6-9.3 28.8-30.2 39.3-38.5 12-9.7 34.5-25.2 42.9-29.8 4.1-2.1 10.2-5.7 13.6-7.7 12.6-7.5 42.4-21.5 66-30.7 22.1-8.6 63.4-21.6 83.8-26.3 67.5-15.4 134.1-24.2 185.1-24.2h17.5v-10.4H639v10.4h22.1c44.8 0 96 5.7 148.6 16.4 13 2.6 26 5.2 28.8 5.7 13.5 2.3 66.6 18.3 90.1 27.2 32.1 12.3 76.8 35 99.3 50.6 5 3.6 12.1 8.4 15.7 10.9 6.8 4.6 24.1 19.4 32.1 27.4 17 16.9 32.6 38.5 42 58 4.7 9.7 11.5 32.4 12.7 42l.3 3.1-57.2.3-57.2.2-.7-3.2c-.3-1.8-.6-5-.6-7.2 0-2.1-1.4-8.7-3-14.8-9.4-33.3-30.1-66.7-57.9-93.6-13-12.6-40.8-35.1-43.4-35.1-.4 0-2.2-1-4-2.4-4.5-3.5-31.9-19.6-33.1-19.6-.6 0-5.7-2.3-11.3-5.1-22.6-11.4-53.2-22.6-87.1-31.9-32.7-8.9-95.1-17.3-128.5-17.4H639v15.8h-17.8v-7.9c0-5.6-.4-7.9-1.3-7.9-6.8.1-39.8 2.5-50.6 3.7-41.4 4.7-73.1 11.4-108.9 22.9-26.4 8.5-26.1 8.4-51.6 20.2-24 11.1-24.5 11.4-41.2 22-6.7 4.2-12.5 7.6-12.8 7.6-.9 0-25.8 19.2-33.7 26.1-23.6 20.4-48.6 53.9-58.3 77.8-6.3 15.6-10.8 30.5-12.5 41.6l-1.3 8.5H134.9l.7-6.1z" fill="red" id="layer102"/></svg>
