<?xml version="1.0" standalone="no"?>
<!DOCTYPE svg PUBLIC "-//W3C//DTD SVG 20010904//EN"
 "http://www.w3.org/TR/2001/REC-SVG-20010904/DTD/svg10.dtd">
<svg version="1.0" xmlns="http://www.w3.org/2000/svg"
 width="844.000000pt" height="844.000000pt" viewBox="0 0 844.000000 844.000000"
 preserveAspectRatio="xMidYMid meet">
<metadata>
Created by potrace 1.11, written by Peter Selinger 2001-2013
</metadata>
<g transform="translate(0.000000,844.000000) scale(0.100000,-0.100000)"
fill="#000000" stroke="none">
<path d="M4177 8415 c-29 -32 -148 -269 -172 -345 -10 -30 -20 -62 -23 -70 -3
-8 -4 -18 -4 -22 1 -5 -2 -8 -7 -8 -13 0 -72 -133 -86 -195 -1 -5 -5 -17 -8
-25 -12 -31 -38 -131 -63 -246 -46 -209 -38 -369 26 -511 45 -99 42 -98 330
-98 135 0 264 3 287 7 73 12 149 62 182 118 45 78 47 226 6 385 -2 11 -11 45
-19 75 -8 30 -26 89 -40 130 -15 41 -28 80 -30 85 -4 14 -15 43 -36 100 -49
136 -91 256 -95 272 -5 24 -53 161 -70 198 -8 17 -18 41 -24 55 -26 60 -82
120 -112 120 -10 0 -29 -11 -42 -25z"/>
<path d="M2603 7713 c-65 -64 -109 -114 -168 -188 -63 -78 -69 -85 -87 -107
-10 -12 -18 -24 -18 -27 0 -3 -10 -17 -23 -31 -36 -39 -170 -236 -217 -320
-50 -89 -119 -251 -144 -335 -10 -33 -21 -71 -26 -85 -5 -14 -14 -50 -19 -80
-6 -30 -13 -68 -16 -85 -14 -72 -17 -232 -6 -254 25 -45 85 -53 411 -55 205
-1 217 0 267 22 50 23 90 58 112 101 7 11 9 21 5 21 -3 0 -2 6 3 13 11 13 11
382 1 393 -4 3 -2 19 2 35 5 17 5 40 1 51 -4 12 -5 38 -1 59 4 21 4 43 -1 50
-4 7 -5 17 -3 21 3 4 7 135 9 290 3 242 7 329 19 508 3 32 -11 60 -29 60 -7 0
-40 -26 -72 -57z"/>
<path d="M5759 7763 c0 -5 -3 -17 -5 -28 -19 -85 -19 -1116 0 -1400 4 -61 15
-97 38 -126 14 -17 73 -51 98 -56 8 -1 43 -9 78 -16 40 -8 122 -12 221 -11
363 4 399 30 367 259 -10 69 -21 113 -63 235 -99 292 -283 680 -400 841 -18
26 -33 50 -33 55 0 15 -198 201 -243 227 -48 29 -57 31 -58 20z"/>
<path d="M4189 6726 c-2 -3 -47 -7 -99 -11 -162 -11 -181 -14 -299 -46 -128
-34 -188 -77 -252 -180 -31 -48 -82 -146 -84 -159 -1 -3 -9 -23 -19 -45 -22
-51 -64 -181 -71 -220 -2 -16 -7 -41 -10 -55 -25 -123 -26 -607 -1 -760 2 -14
7 -50 11 -80 4 -30 10 -59 12 -63 3 -5 7 -23 10 -40 7 -52 90 -324 120 -397 3
-8 7 -17 7 -20 8 -34 61 -160 67 -160 5 0 9 -6 9 -12 0 -25 85 -141 155 -212
149 -151 277 -208 467 -207 163 1 300 69 455 226 73 75 163 193 163 215 0 5 4
10 8 12 13 5 104 201 143 308 21 56 66 199 74 235 49 204 85 565 60 605 -3 5
-1 10 5 10 6 0 9 4 5 9 -3 6 -7 47 -10 93 -14 284 -75 485 -209 698 -43 68
-131 160 -153 160 -7 0 -13 4 -13 8 0 7 -29 17 -115 38 -27 7 -114 22 -170 30
-16 2 -78 6 -138 8 -59 3 -111 7 -116 10 -4 3 -10 4 -12 2z"/>
<path d="M723 6253 c-16 -16 -42 -46 -58 -68 -16 -22 -32 -42 -35 -45 -13 -12
-50 -72 -110 -177 -25 -43 -53 -91 -62 -108 -18 -30 -161 -316 -163 -325 -1
-3 -7 -16 -13 -30 -105 -243 -136 -371 -135 -555 0 -107 15 -178 54 -260 26
-56 70 -114 87 -116 4 0 18 -2 32 -4 72 -12 239 -2 285 15 14 5 25 8 25 5 0
-7 104 27 157 52 71 33 122 96 139 169 3 16 7 65 9 110 2 70 -2 120 -20 239
-2 17 -7 46 -9 65 -3 19 -8 51 -10 70 -12 82 -23 185 -31 300 -3 41 -7 98 -10
125 -9 91 -16 179 -20 250 -2 39 -7 88 -9 110 -3 22 -8 64 -11 94 -7 62 -29
111 -50 111 -8 0 -27 -12 -42 -27z"/>
<path d="M7620 6237 c-1 -139 -10 -469 -14 -492 -15 -106 -19 -132 -22 -150
-3 -11 -7 -36 -10 -55 -3 -19 -7 -42 -10 -50 -3 -8 -8 -32 -11 -53 -6 -44 -11
-72 -13 -72 -1 0 -9 -65 -15 -125 -2 -25 -4 -45 -5 -45 -4 0 -11 -129 -12
-240 -2 -139 12 -223 41 -249 20 -18 131 -69 131 -60 0 4 6 2 13 -4 18 -15
196 -58 287 -69 89 -11 152 -5 179 15 52 38 91 120 108 227 12 73 3 330 -12
355 -2 3 -6 23 -9 45 -5 32 -21 97 -41 170 -1 6 -4 15 -5 20 -2 11 -10 32 -65
175 -35 91 -172 380 -185 390 -4 3 -19 25 -33 50 -14 25 -35 55 -47 67 -11 12
-20 25 -20 28 0 10 -83 95 -114 117 -15 12 -48 22 -72 24 -40 3 -44 1 -44 -19z"/>
<path d="M2187 5984 c-1 -1 -31 -4 -67 -8 -71 -7 -104 -12 -165 -27 -22 -5
-49 -12 -60 -14 -31 -7 -139 -52 -182 -76 -95 -53 -167 -117 -219 -195 -37
-56 -104 -195 -104 -216 0 -8 -5 -19 -12 -26 -7 -7 -9 -12 -6 -12 3 0 0 -24
-8 -52 -23 -88 -29 -156 -28 -318 0 -133 5 -201 19 -270 13 -61 29 -125 47
-185 12 -38 23 -74 24 -80 7 -24 65 -158 110 -250 50 -103 226 -417 244 -435
3 -3 21 -27 40 -55 40 -57 43 -61 73 -95 33 -38 204 -180 215 -180 6 0 12 -4
14 -9 8 -23 215 -147 263 -158 70 -16 209 -21 294 -9 74 9 164 60 241 135 38
38 70 72 70 77 0 4 9 17 19 28 32 35 158 266 145 266 -4 0 -2 6 3 13 23 29 94
245 113 342 5 28 12 61 14 74 3 13 8 49 12 80 3 31 8 65 10 76 6 28 6 293 0
335 -7 45 -17 109 -22 135 -2 11 -6 34 -9 50 -3 17 -9 48 -14 70 -10 40 -20
88 -23 102 0 5 -9 33 -20 63 -10 30 -18 55 -18 55 1 0 -1 7 -4 15 -2 8 -10 33
-16 55 -6 22 -15 49 -19 60 -5 11 -23 58 -41 105 -58 148 -100 220 -173 292
-38 38 -75 68 -82 68 -7 0 -15 4 -17 8 -9 23 -191 108 -271 127 -10 2 -28 7
-40 11 -12 4 -31 8 -42 10 -11 1 -38 6 -60 9 -35 6 -242 14 -248 9z"/>
<path d="M5985 5979 c-16 -4 -43 -10 -60 -13 -16 -2 -30 -5 -30 -6 0 -1 -26
-7 -62 -14 -7 -1 -16 -5 -19 -9 -4 -4 -14 -7 -21 -7 -8 0 -33 -8 -56 -19 -49
-21 -80 -34 -87 -35 -20 -4 -141 -81 -169 -107 -40 -39 -99 -127 -125 -189
-39 -94 -64 -163 -70 -192 -3 -13 -14 -53 -25 -90 -11 -38 -17 -68 -14 -68 3
0 1 -6 -5 -12 -8 -11 -32 -103 -37 -148 -1 -8 -5 -31 -10 -50 -4 -19 -9 -46
-10 -60 -3 -22 -7 -47 -20 -128 -23 -137 -23 -449 0 -597 25 -162 61 -322 76
-339 5 -6 9 -22 9 -36 0 -14 4 -30 8 -36 5 -5 19 -36 32 -69 92 -233 283 -405
502 -450 41 -9 174 -10 208 -3 70 16 90 24 150 55 130 69 260 182 372 323 23
30 46 57 50 58 5 2 8 10 8 18 0 8 5 14 10 14 6 0 10 6 10 13 0 8 9 22 20 32
11 10 20 24 20 31 0 7 4 14 8 16 25 9 219 372 287 538 27 63 101 267 104 283
0 4 1 8 2 10 13 38 19 177 20 413 0 303 -7 367 -45 437 -78 145 -205 260 -371
337 -38 18 -78 37 -87 41 -10 5 -26 9 -36 9 -10 0 -22 3 -26 7 -3 4 -12 8 -19
9 -19 4 -60 13 -92 21 -58 13 -71 14 -220 17 -82 1 -163 -1 -180 -5z"/>
<path d="M537 4514 c-1 -1 -28 -4 -60 -8 -32 -3 -66 -10 -75 -15 -9 -5 -19 -9
-22 -9 -16 1 -101 -47 -129 -72 -18 -17 -36 -30 -42 -30 -5 0 -9 -3 -9 -7 0
-5 -16 -25 -35 -47 -80 -88 -105 -205 -100 -456 2 -96 6 -191 10 -210 3 -19 8
-55 10 -80 2 -25 5 -46 6 -47 1 -2 2 -11 3 -20 3 -18 16 -103 22 -136 2 -10 6
-26 8 -35 3 -10 8 -31 10 -47 6 -41 12 -68 42 -187 14 -57 27 -112 29 -123 5
-23 41 -131 54 -160 21 -48 33 -80 29 -80 -1 0 7 -14 20 -32 12 -17 22 -36 22
-42 0 -6 5 -11 10 -11 6 0 10 -6 10 -12 0 -12 89 -141 135 -197 23 -27 97 -99
140 -135 16 -14 59 -40 95 -58 60 -29 72 -32 165 -31 281 1 448 81 609 292 23
31 51 72 62 91 10 19 22 37 26 40 9 7 58 124 68 165 1 6 9 31 16 56 8 25 16
61 18 80 2 19 8 61 12 94 15 110 8 432 -12 535 -3 14 -9 48 -14 76 -22 130
-74 289 -129 399 -24 50 -47 92 -50 95 -3 3 -26 31 -50 64 -24 32 -55 68 -69
80 -14 11 -32 29 -41 39 -8 9 -21 17 -28 17 -7 0 -13 4 -13 8 0 5 -17 17 -37
28 -21 10 -40 21 -43 24 -10 10 -148 58 -185 65 -11 2 -47 8 -80 14 -86 16
-396 35 -408 25z"/>
<path d="M7501 4499 c-46 -10 -108 -28 -137 -39 -30 -11 -57 -20 -62 -21 -48
-9 -146 -54 -190 -87 -40 -30 -62 -54 -137 -144 -85 -103 -207 -402 -221 -543
-3 -21 -7 -51 -10 -65 -4 -14 -8 -131 -9 -260 -3 -207 0 -271 20 -395 7 -44
40 -157 59 -199 9 -20 23 -53 32 -73 21 -49 86 -157 96 -161 4 -2 8 -8 8 -14
0 -18 79 -109 151 -174 52 -46 155 -93 224 -100 77 -9 247 -12 260 -4 6 3 19
5 30 6 41 2 84 17 104 35 11 11 23 19 27 19 17 0 166 139 231 217 18 21 44 52
58 68 78 91 162 245 205 375 18 52 35 102 38 110 13 37 57 229 67 292 37 245
41 566 9 763 -9 55 -50 162 -79 207 -56 85 -174 166 -265 183 -72 13 -133 18
-265 20 -125 2 -179 -2 -244 -16z"/>
<path d="M4016 3922 c-2 -1 -22 -5 -45 -7 -153 -16 -384 -75 -472 -121 -16 -8
-31 -14 -34 -14 -11 1 -185 -122 -185 -131 0 -5 -4 -9 -9 -9 -13 0 -93 -80
-161 -160 -30 -36 -57 -67 -60 -70 -3 -3 -28 -34 -55 -70 -27 -36 -56 -73 -64
-82 -9 -9 -20 -23 -26 -30 -39 -51 -95 -118 -120 -144 -16 -17 -46 -48 -66
-70 -43 -47 -138 -130 -188 -164 -20 -14 -40 -31 -44 -37 -4 -7 -12 -13 -17
-13 -5 0 -34 -16 -65 -35 -30 -19 -65 -40 -77 -45 -13 -6 -30 -14 -38 -20 -16
-11 -188 -90 -195 -90 -16 0 -490 -233 -512 -252 -7 -6 -13 -7 -13 -2 0 5 -4
4 -8 -2 -4 -6 -34 -25 -67 -43 -33 -18 -77 -43 -97 -54 -21 -11 -38 -24 -38
-29 0 -4 -5 -8 -11 -8 -10 0 -52 -29 -108 -75 -88 -71 -216 -225 -248 -295 -4
-8 -9 -17 -13 -20 -14 -11 -69 -160 -88 -240 -35 -143 -41 -190 -41 -335 0
-130 5 -165 43 -310 7 -24 55 -137 66 -155 6 -8 19 -34 31 -57 12 -24 25 -43
30 -43 5 0 9 -7 9 -15 0 -8 5 -15 10 -15 6 0 10 -5 10 -11 0 -33 222 -271 332
-355 34 -27 65 -52 66 -56 2 -5 8 -8 14 -8 5 0 29 -13 52 -29 56 -39 204 -111
227 -111 10 0 20 -4 23 -9 3 -5 16 -11 28 -14 13 -3 50 -12 83 -20 33 -9 78
-18 100 -21 23 -4 52 -9 65 -12 14 -3 122 -7 240 -9 194 -3 284 2 398 20 77
12 98 16 124 21 15 3 29 5 30 5 10 -1 292 76 438 119 96 28 184 53 195 55 11
2 85 20 165 40 80 20 155 38 168 41 12 2 32 6 45 8 12 3 45 9 74 15 163 32
302 31 473 -4 8 -2 60 -13 115 -25 55 -11 109 -23 120 -25 11 -2 49 -11 85
-20 81 -21 74 -19 145 -34 82 -18 78 -17 95 -23 15 -6 236 -56 279 -65 14 -2
28 -6 32 -8 4 -3 24 -8 45 -11 42 -7 47 -8 84 -17 14 -4 36 -9 50 -11 14 -3
50 -10 80 -16 30 -6 67 -13 82 -16 16 -2 40 -6 55 -9 16 -2 39 -7 53 -10 130
-27 650 -27 781 1 13 2 45 9 71 14 167 33 367 133 502 250 72 62 183 180 231
245 17 22 32 42 35 45 15 15 50 71 50 80 0 5 5 10 10 10 6 0 10 6 10 14 0 8 4
16 8 18 19 7 121 231 139 306 5 22 10 37 16 52 36 96 45 442 13 528 -33 86
-119 249 -160 299 -38 49 -156 159 -218 205 -118 88 -360 239 -513 319 -33 17
-61 35 -63 40 -2 5 -12 9 -22 9 -10 0 -20 4 -22 8 -1 5 -106 60 -233 122 -126
63 -231 117 -233 122 -2 4 -9 8 -16 8 -14 0 -180 100 -184 112 -2 4 -8 8 -14
8 -16 0 -167 122 -243 197 -65 65 -123 127 -170 184 -91 110 -162 197 -175
213 -39 50 -204 208 -266 254 -62 46 -198 121 -227 126 -7 1 -25 6 -42 12 -55
20 -107 36 -128 39 -12 2 -51 9 -87 15 -69 12 -90 15 -210 26 -73 7 -329 12
-334 6z"/>
</g>
</svg>
